<svg width="13" height="11" fill="none" xmlns="http://www.w3.org/2000/svg"><path d="M6.722.343L8.005 2.95a.612.612 0 00.46.336l2.868.419a.615.615 0 01.34 1.048l-2.075 2.03a.616.616 0 00-.176.544l.49 2.867a.613.613 0 01-.889.648L6.458 9.49a.61.61 0 00-.57 0l-2.564 1.353a.613.613 0 01-.889-.648l.49-2.867a.616.616 0 00-.176-.544L.674 4.754a.615.615 0 01.34-1.048l2.867-.419a.612.612 0 00.461-.336L5.624.343a.611.611 0 011.098 0z" fill="#ED8A19"/><mask id="a" maskUnits="userSpaceOnUse" x="0" y="0" width="12" height="11"><path d="M6.722.343L8.005 2.95a.612.612 0 00.46.336l2.868.419a.615.615 0 01.34 1.048l-2.075 2.03a.616.616 0 00-.176.544l.49 2.867a.613.613 0 01-.889.648L6.458 9.49a.61.61 0 00-.57 0l-2.564 1.353a.613.613 0 01-.889-.648l.49-2.867a.616.616 0 00-.176-.544L.674 4.754a.615.615 0 01.34-1.048l2.867-.419a.612.612 0 00.461-.336L5.624.343a.611.611 0 011.098 0z" fill="#fff"/></mask><g mask="url(#a)"><path fill="#D9D9E0" d="M7-2h7v14H7z"/></g></svg>